<svg width="19" height="21" viewBox="0 0 19 21" fill="none" xmlns="http://www.w3.org/2000/svg">
<g clip-path="url(#clip0_135_150)">
<path d="M4.45664 7.31213H0.495552V20.5606H4.45664V7.31213Z" fill="black"/>
<path d="M17.4637 8.52214C16.6347 7.51723 15.5293 7.00452 14.1659 7.00452C13.6685 7.00452 13.2079 7.06604 12.7841 7.2096C12.3788 7.35316 12.0288 7.53774 11.734 7.78384C11.4576 8.02994 11.2181 8.25553 11.0523 8.48112C10.8865 8.68621 10.7391 8.9118 10.5917 9.17841V7.29163H6.64906L6.66748 7.92739C6.66748 8.35807 6.6859 9.67061 6.6859 11.8855C6.6859 14.1004 6.6859 16.9716 6.66748 20.5401H10.6101V13.157C10.6101 12.7059 10.647 12.3367 10.7391 12.0701C10.9049 11.6189 11.1628 11.2293 11.4945 10.9216C11.8261 10.614 12.2498 10.4704 12.7657 10.4704C13.4474 10.4704 13.9632 10.737 14.2764 11.2703C14.6081 11.8035 14.7555 12.5418 14.7555 13.4647V20.5401H18.6981V12.952C18.7165 11.0037 18.3112 9.52705 17.4637 8.52214Z" fill="black"/>
<path d="M2.50375 0.934082C1.8405 0.934082 1.30621 1.15967 0.900894 1.59035C0.477151 2.02103 0.27449 2.55425 0.27449 3.21052C0.27449 3.86679 0.47715 4.40001 0.882471 4.85119C1.28779 5.28187 1.80365 5.50746 2.4669 5.50746H2.48533C3.167 5.50746 3.70129 5.28187 4.10661 4.85119C4.51193 4.42051 4.71459 3.86679 4.71459 3.21052C4.71459 2.55425 4.49351 2.00052 4.10661 1.56984C3.70129 1.15967 3.167 0.934082 2.50375 0.934082Z" fill="black"/>
</g>
<defs>
<clipPath id="clip0_135_150">
<rect width="18.4421" height="19.6266" fill="white" transform="translate(0.27449 0.934082)"/>
</clipPath>
</defs>
</svg>
