<svg width="19" height="21" viewBox="0 0 19 21" fill="none" xmlns="http://www.w3.org/2000/svg">
<g clip-path="url(#clip0_135_161)">
<path d="M13.3437 0.826202H5.43688C2.74909 0.826202 0.570152 3.25049 0.570152 6.24093V15.038C0.570152 18.0285 2.74909 20.4528 5.43688 20.4528H13.3437C16.0315 20.4528 18.2104 18.0285 18.2104 15.038V6.24093C18.2104 3.25049 16.0315 0.826202 13.3437 0.826202ZM16.6447 15.038C16.6447 17.0704 15.1573 18.7108 13.3437 18.7108H5.43688C3.61022 18.7108 2.13585 17.0559 2.13585 15.038V6.24093C2.13585 4.22311 3.62327 2.5682 5.43688 2.5682H13.3437C15.1703 2.5682 16.6447 4.22311 16.6447 6.24093V15.038Z" fill="black"/>
<path d="M9.39025 5.58755C6.88513 5.58755 4.83667 7.85216 4.83667 10.6394C4.83667 13.4266 6.87208 15.7057 9.39025 15.7057C11.8954 15.7057 13.9438 13.4411 13.9438 10.6394C13.9438 7.85216 11.8954 5.58755 9.39025 5.58755ZM9.39025 13.9637C7.74627 13.9637 6.40237 12.483 6.40237 10.6539C6.41542 8.81026 7.74627 7.32956 9.39025 7.32956C11.0342 7.32956 12.3781 8.81026 12.3781 10.6394C12.3781 12.4685 11.0342 13.9637 9.39025 13.9637Z" fill="black"/>
<path d="M14.1265 4.10693C13.8264 4.10693 13.5263 4.23758 13.3176 4.48437C13.1088 4.71663 12.9783 5.05052 12.9783 5.3844C12.9783 5.71829 13.0958 6.05217 13.3176 6.28444C13.5263 6.5167 13.8264 6.66187 14.1265 6.66187C14.4266 6.66187 14.7267 6.53122 14.9355 6.28444C15.1442 6.05217 15.2747 5.71829 15.2747 5.3844C15.2747 5.05052 15.1573 4.71663 14.9355 4.48437C14.7267 4.23758 14.4397 4.10693 14.1265 4.10693Z" fill="black"/>
</g>
<defs>
<clipPath id="clip0_135_161">
<rect width="17.6402" height="19.6266" fill="white" transform="translate(0.570152 0.826202)"/>
</clipPath>
</defs>
</svg>
