<svg width="21" height="19" viewBox="0 0 21 19" fill="none" xmlns="http://www.w3.org/2000/svg">
<path d="M20.4229 2.83633C19.6421 3.20002 18.8418 3.43535 18.0611 3.54232C18.959 2.96469 19.5445 2.13034 19.8763 1.06065C19.0566 1.5741 18.1782 1.93779 17.2608 2.13034C16.441 1.18901 15.4456 0.718353 14.2549 0.718353C13.1229 0.718353 12.1469 1.16762 11.3467 2.04476C10.5464 2.9219 10.1365 3.99159 10.1365 5.23242C10.1365 5.57472 10.1755 5.91702 10.2341 6.25931C8.55547 6.17374 6.97446 5.70308 5.51055 4.86873C4.04665 4.03437 2.79745 2.9219 1.76296 1.55271C1.3921 2.2587 1.19691 3.00748 1.19691 3.82044C1.19691 4.59061 1.35306 5.31799 1.68488 5.9598C2.0167 6.62301 2.46563 7.15785 3.01216 7.56433C2.34852 7.54293 1.72392 7.35039 1.15788 6.9867V7.05088C1.15788 8.14196 1.47018 9.08328 2.09478 9.91763C2.71938 10.7306 3.50012 11.2654 4.45654 11.4794C4.10521 11.5863 3.73435 11.6291 3.38301 11.6291C3.14879 11.6291 2.89504 11.6077 2.60226 11.5649C2.85601 12.4635 3.34397 13.2123 4.04665 13.7899C4.74932 14.3675 5.54959 14.667 6.44745 14.6884C4.96403 15.972 3.24638 16.6139 1.35306 16.6139C0.982209 16.6139 0.650391 16.5925 0.35761 16.5497C2.27044 17.8975 4.37847 18.5607 6.66216 18.5607C8.12606 18.5607 9.49237 18.304 10.7806 17.8119C12.0688 17.2985 13.1619 16.6352 14.0598 15.7795C14.9576 14.9238 15.7579 13.9396 16.402 12.8486C17.0656 11.7361 17.5536 10.5808 17.8659 9.38279C18.1782 8.18475 18.3539 6.96531 18.3539 5.76726C18.3539 5.51054 18.3539 5.31799 18.3344 5.18963C19.1737 4.52643 19.8568 3.75625 20.4229 2.83633Z" fill="black"/>
</svg>
