<svg width="24" height="19" viewBox="0 0 24 19" fill="none" xmlns="http://www.w3.org/2000/svg">
<g clip-path="url(#clip0_135_147)">
<path d="M23.2202 7.54293C23.2202 7.05088 23.1818 6.40907 23.1049 5.6389C23.0472 4.86873 22.951 4.18413 22.8357 3.58511C22.7011 2.90051 22.4126 2.34427 21.9704 1.87361C21.5281 1.40295 21.009 1.14623 20.4129 1.06065C18.5669 0.825322 15.7596 0.718353 12.01 0.718353C8.26044 0.718353 5.45308 0.825322 3.60714 1.06065C3.01106 1.14623 2.49189 1.40295 2.04963 1.87361C1.60737 2.34427 1.31895 2.90051 1.18435 3.58511C1.04975 4.18413 0.972833 4.86873 0.895919 5.6389C0.838234 6.40907 0.799777 7.05088 0.780548 7.54293C0.780548 8.05638 0.780548 8.74098 0.780548 9.63951C0.780548 10.538 0.780548 11.2226 0.799777 11.7361C0.799777 12.2281 0.838234 12.87 0.915148 13.6401C0.953605 14.4103 1.04975 15.0949 1.16512 15.6939C1.29972 16.3785 1.58815 16.9348 2.0304 17.4054C2.47266 17.8761 2.99183 18.1328 3.58791 18.2184C5.43385 18.4537 8.24121 18.5607 11.9908 18.5607C15.7403 18.5607 18.5477 18.4537 20.3936 18.2184C20.9897 18.1542 21.5089 17.8761 21.9511 17.4054C22.3934 16.9348 22.6818 16.3785 22.8164 15.6939C22.951 15.0949 23.0279 14.4103 23.1049 13.6401C23.1625 12.87 23.201 12.2281 23.2202 11.7361C23.2202 11.244 23.2395 10.538 23.2395 9.63951C23.2395 8.74098 23.2395 8.05638 23.2202 7.54293ZM16.4518 10.3883L10.0295 14.8596C9.91409 14.9451 9.7795 15.0093 9.60644 15.0093C9.47184 15.0093 9.35647 14.9665 9.22187 14.9024C8.95267 14.7312 8.79884 14.4745 8.79884 14.1108V5.18963C8.79884 4.82594 8.93344 4.56921 9.22187 4.39807C9.5103 4.22692 9.7795 4.24831 10.0295 4.41946L13.2406 6.6551L16.4518 8.89074C16.7018 9.04049 16.8364 9.29722 16.8364 9.63951C16.8171 9.98181 16.7018 10.2385 16.4518 10.3883Z" fill="black"/>
</g>
<defs>
<clipPath id="clip0_135_147">
<rect width="22.4589" height="17.8423" fill="white" transform="translate(0.780548 0.718353)"/>
</clipPath>
</defs>
</svg>
